<?xml version="1.0" encoding="UTF-8" standalone="no"?>
<!-- Created with Inkscape (http://www.inkscape.org/) -->

<svg
   width="362.71899"
   height="96"
   viewBox="0 0 95.969398 25.4"
   version="1.1"
   id="svg5"
   inkscape:version="1.1 (c68e22c387, 2021-05-23)"
   sodipodi:docname="logo.svg"
   xmlns:inkscape="http://www.inkscape.org/namespaces/inkscape"
   xmlns:sodipodi="http://sodipodi.sourceforge.net/DTD/sodipodi-0.dtd"
   xmlns="http://www.w3.org/2000/svg"
   xmlns:svg="http://www.w3.org/2000/svg">
  <sodipodi:namedview
     id="namedview7"
     pagecolor="#ffffff"
     bordercolor="#666666"
     borderopacity="1.0"
     inkscape:pageshadow="2"
     inkscape:pageopacity="0.0"
     inkscape:pagecheckerboard="0"
     inkscape:document-units="mm"
     showgrid="false"
     inkscape:zoom="1.3772587"
     inkscape:cx="105.64464"
     inkscape:cy="4.71952"
     inkscape:window-width="1920"
     inkscape:window-height="1052"
     inkscape:window-x="0"
     inkscape:window-y="0"
     inkscape:window-maximized="1"
     inkscape:current-layer="layer1"
     units="px"
     width="362.719px" />
  <defs
     id="defs2" />
  <g
     inkscape:label="Strat 1"
     inkscape:groupmode="layer"
     id="layer1">
    <path
       id="path3442"
       style="fill:#26c6da;stroke:#ffffff;stroke-width:0;paint-order:markers fill stroke"
       d="M 25.4,12.7 A 12.7,12.7 0 0 1 12.7,25.4 12.7,12.7 0 0 1 0,12.7 12.7,12.7 0 0 1 12.7,0 12.7,12.7 0 0 1 25.4,12.7 Z" />
    <g
       id="g830"
       transform="translate(-1.8520835,-0.66145853)">
      <path
         d="m 14.816575,9.2604167 c -0.582084,0 -1.053042,0.4762495 -1.053042,1.0583313 l -0.0052,8.46667 c 0,0.582081 0.470958,1.058332 1.053042,1.058332 h 6.355291 c 0.582084,0 1.058334,-0.476251 1.058334,-1.058332 V 12.435416 L 19.05,9.2604167 Z m 3.704165,3.7041653 v -2.910416 l 2.910418,2.910416 z"
         id="path872"
         style="fill:#ffffff;fill-opacity:1;stroke-width:0.529166" />
      <g
         aria-label=".py"
         id="text4098"
         style="font-weight:bold;font-size:3.175px;line-height:1.25;font-family:Catamaran;-inkscape-font-specification:'Catamaran Bold';fill:#26c6da;stroke-width:0.264583">
        <path
           d="m 17.436042,18.004366 q 0.09525,0 0.15875,-0.06668 0.06667,-0.06668 0.06667,-0.1651 0,-0.09842 -0.06667,-0.1651 -0.0635,-0.06668 -0.15875,-0.06668 -0.1016,0 -0.17145,0.06668 -0.06668,0.06668 -0.06668,0.168275 0,0.09525 0.06668,0.161925 0.06985,0.06668 0.17145,0.06668 z"
           id="path830" />
        <path
           d="M 18.359965,18.667941 V 16.715316 L 18.15994,16.464491 h -0.20955 v 2.2352 z m -0.1397,-1.6891 q 0.111125,-0.1016 0.206375,-0.1524 0.09525,-0.0508 0.206375,-0.0508 0.12065,0 0.200025,0.06032 0.07937,0.05715 0.12065,0.15875 0.04127,0.09842 0.04127,0.231775 0,0.130175 -0.04127,0.238125 -0.0381,0.104775 -0.12065,0.1651 -0.08255,0.06033 -0.200025,0.06033 -0.10795,0 -0.206375,-0.04445 -0.09842,-0.04763 -0.206375,-0.17145 l -0.117475,0.2794 q 0.04763,0.07303 0.136525,0.1397 0.0889,0.06668 0.193675,0.10795 0.10795,0.04128 0.200025,0.04128 0.254,0 0.428625,-0.1016 0.174625,-0.104775 0.2667,-0.28575 0.09525,-0.18415 0.09525,-0.428625 0,-0.244475 -0.09525,-0.42545 -0.09208,-0.180975 -0.2667,-0.2794 -0.17145,-0.09842 -0.41275,-0.09842 -0.10795,0 -0.206375,0.03493 -0.09842,0.03492 -0.18415,0.09842 -0.08255,0.0635 -0.155575,0.1524 z"
           id="path832" />
        <path
           d="m 19.991912,18.077391 q -0.0254,0.06985 -0.09525,0.123825 -0.06668,0.05398 -0.1524,0.09525 -0.08255,0.04128 -0.155575,0.07303 l 0.14605,0.339725 q 0.136525,-0.03175 0.263525,-0.1016 0.130175,-0.06985 0.231775,-0.174625 0.1016,-0.1016 0.149225,-0.225425 l 0.688975,-1.743075 h -0.434975 l -0.333375,0.93345 -0.358775,-0.993775 -0.4064,0.127 0.530225,1.36525 z"
           id="path834" />
      </g>
      <path
         d="M 12.382498,8.4666659 12.170832,7.4083317 H 7.4083317 V 16.404167 H 8.4666638 V 12.7 H 11.43 l 0.211665,1.058333 h 3.704167 V 8.4666659 Z"
         id="path3526"
         style="fill:#ffffff;fill-opacity:1;stroke:#26c6da;stroke-width:1.05833;stroke-miterlimit:4;stroke-dasharray:none;stroke-opacity:1;paint-order:markers stroke fill" />
    </g>
    <g
       aria-label="Scratch2Python"
       id="text2902"
       style="font-size:10.5833px;line-height:1.25;font-family:Catamaran;-inkscape-font-specification:Catamaran;fill:#ffffff;stroke-width:0.264583">
      <path
         d="m 28.16225,14.922493 q 0.148166,0.09525 0.380999,0.190499 0.232832,0.08467 0.518581,0.148167 0.285749,0.0635 0.560915,0.105833 0.285749,0.04233 0.507999,0.04233 0.814914,0 1.375829,-0.243416 0.571498,-0.243416 0.86783,-0.666748 0.306916,-0.423332 0.306916,-0.973664 0,-0.391582 -0.127,-0.687914 Q 32.42732,12.530667 32.183904,12.287251 31.940488,12.043835 31.591239,11.832169 31.24199,11.620503 30.776325,11.419421 30.15191,11.112505 29.717995,10.879673 29.28408,10.636257 29.06183,10.361091 28.850164,10.085925 28.850164,9.7049263 q 0,-0.5079984 0.423332,-0.7937475 0.433916,-0.2857491 1.111247,-0.2857491 0.359832,0 0.624414,0.0635 0.275166,0.052917 0.486832,0.1375829 0.22225,0.084666 0.402166,0.1693328 L 32.183904,8.3502639 Q 31.845238,8.1809311 31.358406,8.0433482 30.871575,7.9057653 30.34241,7.9057653 q -0.709082,0 -1.227663,0.2434159 -0.507999,0.2434159 -0.793748,0.6455813 -0.275165,0.4021654 -0.275165,0.9207471 0,0.3704154 0.116416,0.6773314 0.126999,0.306915 0.359832,0.571498 0.243416,0.253999 0.592665,0.476248 0.359832,0.211666 0.825497,0.423332 0.624415,0.254 1.047747,0.497415 0.423332,0.232833 0.634998,0.507999 0.222249,0.275166 0.222249,0.666748 0,0.328082 -0.201083,0.603248 -0.190499,0.264582 -0.571498,0.412748 -0.380999,0.148167 -0.952497,0.148167 -0.328082,0 -0.666748,-0.0635 -0.338665,-0.07408 -0.624414,-0.179916 -0.275166,-0.105833 -0.476249,-0.1905 z"
         id="path837" />
      <path
         d="m 37.263873,14.350995 q -0.296333,0.148166 -0.613832,0.253999 -0.306915,0.09525 -0.814914,0.09525 -0.529165,0 -0.89958,-0.264583 -0.359832,-0.264582 -0.539749,-0.719664 -0.179916,-0.465665 -0.179916,-1.037164 0.01058,-0.550331 0.201083,-0.99483 0.201083,-0.444498 0.571498,-0.709081 0.370416,-0.264582 0.888997,-0.264582 0.497415,0 0.814914,0.116416 0.317499,0.105833 0.613832,0.232833 l 0.253999,-0.582082 q -0.211666,-0.148166 -0.529165,-0.253999 -0.306916,-0.105833 -0.613831,-0.15875 -0.306916,-0.0635 -0.518582,-0.0635 -0.772581,0 -1.344079,0.349249 -0.571498,0.338665 -0.878414,0.941913 -0.296332,0.603248 -0.306916,1.396996 0,0.804331 0.296333,1.418162 0.296332,0.613831 0.846664,0.96308 0.560915,0.338666 1.333495,0.338666 0.22225,0 0.529165,-0.0635 0.306916,-0.05292 0.613832,-0.15875 0.317499,-0.105833 0.539748,-0.243415 z"
         id="path839" />
      <path
         d="M 39.359348,15.271742 V 11.73692 q 0.232832,-0.232833 0.539748,-0.444499 0.306916,-0.211666 0.645581,-0.349249 0.349249,-0.137583 0.645582,-0.137583 l -0.201083,-0.666747 q -0.275166,0 -0.603248,0.137582 -0.317499,0.137583 -0.613831,0.338666 -0.28575,0.190499 -0.486832,0.349249 l -0.253999,-0.825497 h -0.497415 v 5.1329 z"
         id="path841" />
      <path
         d="m 42.597831,13.811247 q 0,-0.402166 0.264583,-0.698498 0.275165,-0.306916 0.793747,-0.306916 h 1.344079 v 1.174746 q -0.264582,0.306916 -0.634998,0.529165 -0.370415,0.22225 -0.814914,0.22225 -0.328082,0 -0.539748,-0.137583 -0.211666,-0.137583 -0.317499,-0.349249 -0.09525,-0.222249 -0.09525,-0.433915 z m -0.201082,-2.730492 q 0.285749,-0.116416 0.624414,-0.232832 0.349249,-0.116417 0.846664,-0.116417 0.613832,0 0.867831,0.349249 0.264582,0.349249 0.264582,0.878414 v 0.285749 h -1.322912 q -0.825498,0 -1.344079,0.412749 -0.518582,0.402165 -0.518582,1.15358 0,0.677331 0.433915,1.132413 0.433916,0.455081 1.333496,0.455081 0.423332,0 0.846664,-0.201082 0.433915,-0.201083 0.677331,-0.444499 l 0.105833,0.518582 h 0.634998 V 11.73692 q 0,-0.507999 -0.253999,-0.899581 -0.253999,-0.391582 -0.709081,-0.613831 -0.444499,-0.222249 -1.037163,-0.222249 -0.211666,0 -0.539749,0.0635 -0.328082,0.05292 -0.645581,0.15875 -0.306916,0.09525 -0.507998,0.232833 z"
         id="path843" />
      <path
         d="m 49.148882,10.223508 h -0.93133 V 8.6889295 l -0.846664,0.2328326 v 1.3017459 h -0.740831 l 0.01058,0.634998 h 0.730248 v 3.07974 q 0,0.486832 0.179916,0.814914 0.179916,0.328082 0.507998,0.507999 0.328082,0.169332 0.761998,0.169332 0.148166,0 0.296332,-0.03175 0.148166,-0.02117 0.275166,-0.0635 0.126999,-0.04233 0.211666,-0.08467 l -0.201083,-0.656164 q -0.07408,0.03175 -0.211666,0.07408 -0.126999,0.03175 -0.253999,0.03175 -0.380999,0 -0.550332,-0.243416 -0.169332,-0.243416 -0.169332,-0.634998 v -2.963324 h 1.195912 z"
         id="path845" />
      <path
         d="m 54.091281,14.350995 q -0.296332,0.148166 -0.613831,0.253999 -0.306916,0.09525 -0.814915,0.09525 -0.529165,0 -0.89958,-0.264583 -0.359832,-0.264582 -0.539748,-0.719664 -0.179916,-0.465665 -0.179916,-1.037164 0.01058,-0.550331 0.201082,-0.99483 0.201083,-0.444498 0.571499,-0.709081 0.370415,-0.264582 0.888997,-0.264582 0.497415,0 0.814914,0.116416 0.317499,0.105833 0.613831,0.232833 l 0.253999,-0.582082 q -0.211666,-0.148166 -0.529165,-0.253999 -0.306915,-0.105833 -0.613831,-0.15875 -0.306916,-0.0635 -0.518582,-0.0635 -0.772581,0 -1.344079,0.349249 -0.571498,0.338665 -0.878414,0.941913 -0.296332,0.603248 -0.306915,1.396996 0,0.804331 0.296332,1.418162 0.296332,0.613831 0.846664,0.96308 0.560915,0.338666 1.333496,0.338666 0.222249,0 0.529165,-0.0635 0.306915,-0.05292 0.613831,-0.15875 0.317499,-0.105833 0.539748,-0.243415 z"
         id="path847" />
      <path
         d="m 56.29259,11.631087 q 0.253999,-0.264583 0.550331,-0.465665 0.296333,-0.211666 0.603248,-0.338666 0.317499,-0.127 0.571498,-0.127 0.529165,0 0.719665,0.338666 0.201083,0.338666 0.201083,0.867831 v 3.365489 h 0.83608 V 11.80042 q 0,-0.529165 -0.169333,-0.931331 -0.169332,-0.412748 -0.529165,-0.645581 -0.349248,-0.243416 -0.910163,-0.243416 -0.338666,0 -0.698498,0.116416 -0.359832,0.116417 -0.677331,0.317499 -0.317499,0.201083 -0.560915,0.455082 z m 0,3.640655 V 7.7999323 l -0.825498,0.1164163 v 7.3553934 z"
         id="path849" />
      <path
         d="m 62.716646,9.1440114 q -0.698498,0 -1.164163,0.1904994 -0.455082,0.1799161 -0.751415,0.3598322 l 0.243416,0.677331 q 0.1905,-0.105833 0.423332,-0.232832 0.243416,-0.127 0.550332,-0.2116664 0.306915,-0.09525 0.687914,-0.09525 0.634998,0 1.015997,0.2857491 0.391582,0.275166 0.391582,0.814914 0,0.306916 -0.137583,0.582081 -0.126999,0.275166 -0.391582,0.560915 -0.264582,0.285749 -0.687914,0.645582 l -2.233077,1.947327 v 0.603248 h 4.593152 l -0.137582,-0.656165 h -3.344323 l 1.576911,-1.322912 q 0.571499,-0.486832 0.910164,-0.888997 0.349249,-0.402166 0.507999,-0.783165 0.158749,-0.380998 0.158749,-0.77258 0,-0.529165 -0.275166,-0.9101641 -0.275165,-0.3809988 -0.772581,-0.5820815 -0.486831,-0.211666 -1.164162,-0.211666 z"
         id="path851" />
      <path
         d="m 67.278029,15.271742 v -2.719908 h 1.015997 q 0.571498,0 1.068913,-0.127 0.497415,-0.137583 0.878414,-0.412748 0.380999,-0.275166 0.603248,-0.709081 0.222249,-0.433916 0.222249,-1.015997 0,-0.7937477 -0.349249,-1.2805795 Q 70.368352,8.5195967 69.765104,8.2973474 69.161856,8.0750981 68.410442,8.0750981 h -1.957911 v 7.1966439 z m 1.132413,-6.4875628 q 0.550331,0 0.941914,0.1481662 0.402165,0.1375829 0.624414,0.4656652 0.232833,0.3280823 0.232833,0.9101634 -0.01058,0.550332 -0.264583,0.888998 -0.243416,0.338665 -0.666748,0.497415 -0.423332,0.148166 -0.952496,0.148166 H 67.278029 V 8.7841792 Z"
         id="path853" />
      <path
         d="m 73.098829,16.107823 q -0.08467,0.232832 -0.243416,0.391582 -0.158749,0.158749 -0.370415,0.264582 -0.211666,0.116416 -0.465666,0.232833 l 0.254,0.603248 q 0.370415,-0.08467 0.687914,-0.264583 0.317499,-0.169332 0.550332,-0.433915 0.243416,-0.253999 0.359832,-0.571498 l 2.254243,-6.19123 h -0.836081 l -1.471079,3.968737 -1.555745,-4.127487 -0.740831,0.317499 1.904994,4.942401 z"
         id="path855" />
      <path
         d="M 78.919642,10.223508 H 77.988311 V 8.6889295 l -0.846664,0.2328326 v 1.3017459 h -0.740831 l 0.01058,0.634998 h 0.730247 v 3.07974 q 0,0.486832 0.179916,0.814914 0.179916,0.328082 0.507999,0.507999 0.328082,0.169332 0.761997,0.169332 0.148166,0 0.296333,-0.03175 0.148166,-0.02117 0.275165,-0.0635 0.127,-0.04233 0.211666,-0.08467 l -0.201082,-0.656164 q -0.07408,0.03175 -0.211666,0.07408 -0.127,0.03175 -0.253999,0.03175 -0.380999,0 -0.550332,-0.243416 -0.169333,-0.243416 -0.169333,-0.634998 v -2.963324 h 1.195913 z"
         id="path857" />
      <path
         d="m 81.216216,11.631087 q 0.253999,-0.264583 0.550331,-0.465665 0.296333,-0.211666 0.603248,-0.338666 0.317499,-0.127 0.571498,-0.127 0.529165,0 0.719665,0.338666 0.201083,0.338666 0.201083,0.867831 v 3.365489 h 0.83608 V 11.80042 q 0,-0.529165 -0.169333,-0.931331 -0.169332,-0.412748 -0.529165,-0.645581 -0.349248,-0.243416 -0.910163,-0.243416 -0.338666,0 -0.698498,0.116416 -0.359832,0.116417 -0.677331,0.317499 -0.317499,0.201083 -0.560915,0.455082 z m 0,3.640655 V 7.7999323 l -0.825498,0.1164163 v 7.3553934 z"
         id="path859" />
      <path
         d="m 88.11652,15.409325 q -0.761998,0.01058 -1.312329,-0.338666 -0.550332,-0.359832 -0.846664,-0.96308 -0.285749,-0.613831 -0.285749,-1.418162 0.01058,-0.783164 0.306915,-1.386412 0.306916,-0.603249 0.867831,-0.952497 0.571498,-0.349249 1.344079,-0.349249 0.772581,0 1.322912,0.338665 0.550332,0.338666 0.846664,0.941914 0.296333,0.603248 0.296333,1.439329 0,0.783164 -0.317499,1.386412 -0.306916,0.603248 -0.878414,0.952497 -0.560915,0.349249 -1.344079,0.349249 z m 0.02117,-0.709081 q 0.529165,0 0.89958,-0.264583 0.370415,-0.264582 0.560915,-0.709081 0.201083,-0.444498 0.201083,-0.99483 0,-0.582082 -0.1905,-1.037163 -0.179916,-0.455082 -0.539748,-0.719665 -0.349249,-0.264582 -0.888997,-0.264582 -0.518582,0 -0.888997,0.264582 -0.370416,0.264583 -0.571499,0.709081 -0.190499,0.444499 -0.201082,0.99483 0,0.571499 0.179916,1.037164 0.179916,0.455082 0.539748,0.719664 0.370416,0.264583 0.899581,0.264583 z"
         id="path861" />
      <path
         d="m 92.487416,15.271742 v -3.640655 q 0.253999,-0.264583 0.550331,-0.465665 0.296333,-0.211666 0.603249,-0.338666 0.317498,-0.127 0.571498,-0.127 0.529165,0 0.719664,0.338666 0.201083,0.338666 0.201083,0.867831 v 3.365489 h 0.83608 V 11.80042 q 0,-0.529165 -0.169332,-0.931331 -0.169333,-0.412748 -0.529165,-0.645581 -0.349249,-0.243416 -0.910164,-0.243416 -0.338666,0 -0.698498,0.116416 -0.359832,0.116417 -0.677331,0.317499 -0.317499,0.201083 -0.560915,0.455082 L 92.27575,10.138842 h -0.613832 v 5.1329 z"
         id="path863" />
    </g>
  </g>
</svg>
